<?xml version="1.0" encoding="UTF-8"?>
<svg version="1.1" xmlns="http://www.w3.org/2000/svg" width="960" height="540">
<path d="M0 0 C316.8 0 633.6 0 960 0 C960 178.2 960 356.4 960 540 C643.2 540 326.4 540 0 540 C0 361.8 0 183.6 0 0 Z " fill="#FEFEFE" transform="translate(0,0)"/>
<path d="M0 0 C2.1924749 3.28871234 2.57579072 5.32084522 3.21875 9.1875 C3.42798096 10.43305664 3.63721191 11.67861328 3.8527832 12.96191406 C4.06960616 14.30776852 4.28532024 15.65380202 4.5 17 C4.61016449 17.68348511 4.72032898 18.36697021 4.83383179 19.07116699 C5.57929664 23.71067175 6.29516076 28.3541576 7 33 C7.14002441 33.89912109 7.28004883 34.79824219 7.42431641 35.72460938 C12.50107787 69.41649731 9.81848636 107.26905994 1 140 C0.67 140.33 0.34 140.66 0 141 C-17.02101278 139.76210816 -33.34123509 131.01212849 -44.44921875 118.16796875 C-58.8216137 100.72097627 -63.71850283 82.39174373 -62 60 C-59.22405408 40.96593427 -49.40115792 25.37783028 -34.625 13.1875 C-29.77998985 9.59797944 -24.56502727 7.25883832 -19 5 C-18.0821875 4.61714844 -17.164375 4.23429688 -16.21875 3.83984375 C-5.45936233 -0.57466972 -5.45936233 -0.57466972 0 0 Z " fill="#E5272C" transform="translate(715,174)"/>
<path d="M0 0 C13.52678807 -1.35267881 27.42565218 6.7022498 38 14.5 C46.93878932 21.94186288 54.81286015 32.12003032 59 43 C59.38929688 43.97453125 59.77859375 44.9490625 60.1796875 45.953125 C65.65182655 61.87893657 64.18798484 79.21912626 59 95 C58.58427734 96.39412109 58.58427734 96.39412109 58.16015625 97.81640625 C55.69624651 105.0718824 50.97675521 110.29600768 46 116 C45.33097656 116.86109375 44.66195312 117.7221875 43.97265625 118.609375 C38.30309847 125.48020542 30.05959075 130.39300283 22 134 C21.01 134 20.02 134 19 134 C18.67 134.99 18.34 135.98 18 137 C12.33657477 139.36397437 6.01978696 139.19110435 0 139 C-2.45939547 130.11024561 -3.99728933 121.27392582 -5.125 112.125 C-5.21026947 111.43702332 -5.29553894 110.74904663 -5.38339233 110.04022217 C-9.26459199 78.25512457 -9.16147892 46.45139097 -3 15 C-2.84176758 14.17677246 -2.68353516 13.35354492 -2.52050781 12.50537109 C-1.71613553 8.32909115 -0.88022958 4.16108529 0 0 Z " fill="#E6262B" transform="translate(243,175)"/>
<path d="M0 0 C10.06700829 9.37088537 19.19593769 23.26678189 21.1875 37.0625 C21.22570709 39.3955205 21.23329895 41.72961618 21.1875 44.0625 C11.81370281 46.51162208 2.48155988 48.4550589 -7.125 49.75 C-8.00623535 49.86899658 -8.8874707 49.98799316 -9.79541016 50.1105957 C-22.48131453 51.74372633 -35.03589702 52.3016958 -47.8125 52.3125 C-49.05939606 52.31401062 -49.05939606 52.31401062 -50.33148193 52.31555176 C-104.99963391 52.27107739 -104.99963391 52.27107739 -118.8125 43.0625 C-119 39.9375 -119 39.9375 -118.8125 37.0625 C-118.1525 37.0625 -117.4925 37.0625 -116.8125 37.0625 C-116.85632813 36.19109375 -116.90015625 35.3196875 -116.9453125 34.421875 C-116.50694191 23.33367779 -108.01491233 10.01855483 -100.140625 2.45703125 C-70.69962924 -24.21651091 -30.88335896 -26.33865062 0 0 Z " fill="#E6262B" transform="translate(527.8125,436.9375)"/>
<path d="M0 0 C0.96117737 -0.00421967 1.92235474 -0.00843933 2.91265869 -0.01278687 C20.78842478 -0.04739055 38.58377346 1.45402454 55.9453125 5.875 C58.59650481 6.49335389 61.16800245 6.85514355 63.875 7.125 C67.625 7.5 67.625 7.5 68.625 8.5 C69.35766335 14.89143102 68.17250883 20.05521913 65.625 25.875 C65.15404907 26.97908203 65.15404907 26.97908203 64.67358398 28.10546875 C61.8029008 34.57317814 58.15520705 40.06198881 53.625 45.5 C53.04492188 46.26441406 52.46484375 47.02882812 51.8671875 47.81640625 C44.17349953 57.3918837 32.38537272 65.01065864 20.625 68.5 C19.22314453 68.94279297 19.22314453 68.94279297 17.79296875 69.39453125 C4.84112701 72.96239709 -9.7150459 73.21421714 -22.375 68.5 C-23.41914063 68.1596875 -24.46328125 67.819375 -25.5390625 67.46875 C-42.39354701 61.62691462 -55.79931919 49.0634184 -64.03515625 33.328125 C-72.29768604 16.0316253 -72.29768604 16.0316253 -70.375 8.5 C-62.20350311 5.3831315 -53.87330322 4.01259547 -45.25 2.8125 C-44.46453796 2.70260742 -43.67907593 2.59271484 -42.86981201 2.47949219 C-28.58662748 0.5467029 -14.40323069 0.00624522 0 0 Z " fill="#E6262C" transform="translate(480.375,0.5)"/>
<path d="M0 0 C7.29703827 3.87214665 12.80548679 9.07251585 18.65454102 14.83056641 C19.41250977 15.55244141 20.17047852 16.27431641 20.95141602 17.01806641 C33.6014645 29.96230206 37.21526979 47.97343734 37.14257812 65.45800781 C36.70958199 80.60382481 31.21889956 92.93549366 23.65454102 105.83056641 C16.59175061 104.70051994 10.28992103 99.32030178 4.59204102 95.26806641 C3.85469727 94.7450293 3.11735352 94.22199219 2.35766602 93.68310547 C-11.80461069 83.56109962 -25.60490443 72.84661445 -36.88842773 59.50634766 C-38.08867002 58.12590814 -39.36447632 56.81154907 -40.65795898 55.51806641 C-53.95073203 42.22529336 -68.04748373 25.81246924 -76.34545898 8.83056641 C-76.33764648 6.64306641 -76.33764648 6.64306641 -75.34545898 4.83056641 C-68.68857233 -0.64835265 -59.00522663 -5.16943359 -50.34545898 -5.16943359 C-50.34545898 -5.82943359 -50.34545898 -6.48943359 -50.34545898 -7.16943359 C-33.96725332 -12.62883548 -14.84818914 -7.40322952 0 0 Z " fill="#E5262C" transform="translate(340.345458984375,354.16943359375)"/>
<path d="M0 0 C3.11281801 2.18819874 4.37255294 5.54138049 5.95703125 8.89428711 C6.4830896 9.9797583 6.4830896 9.9797583 7.01977539 11.0871582 C14.59796016 26.97730262 16.26828792 44.16685528 11.89453125 61.33178711 C11.69988281 62.15678711 11.50523437 62.98178711 11.3046875 63.83178711 C6.59195768 81.67881127 -5.59253427 94.96125732 -21.10546875 104.33178711 C-25.02579051 106.2504631 -28.98800397 107.88671534 -33.10546875 109.33178711 C-33.82911621 109.59290283 -34.55276367 109.85401855 -35.29833984 110.12304688 C-41.8444966 112.31442785 -47.85224435 112.8397903 -54.73046875 112.76928711 C-55.78153809 112.76098877 -56.83260742 112.75269043 -57.91552734 112.74414062 C-71.64635494 112.44884271 -88.93765497 109.49960089 -99.10546875 99.33178711 C-98.7730549 95.4812596 -97.44459362 92.8919426 -95.33203125 89.70678711 C-94.7599292 88.84166504 -94.18782715 87.97654297 -93.59838867 87.08520508 C-92.67376831 85.72226318 -92.67376831 85.72226318 -91.73046875 84.33178711 C-91.09923096 83.39351074 -90.46799316 82.45523438 -89.81762695 81.48852539 C-85.42289496 75.04587602 -80.77942129 68.99224403 -75.60546875 63.16381836 C-73.23200228 60.47512588 -71.01089519 57.71154293 -68.79296875 54.89428711 C-60.89563368 45.19306435 -51.71744308 36.32645027 -42.10546875 28.33178711 C-41.19410156 27.55448242 -40.28273438 26.77717773 -39.34375 25.97631836 C-32.8102372 20.44667437 -26.15314473 15.19678732 -19.10546875 10.33178711 C-18.42162109 9.85435059 -17.73777344 9.37691406 -17.03320312 8.88500977 C-14.75739161 7.30622711 -12.46540359 5.75390012 -10.16796875 4.20678711 C-9.06642456 3.44120483 -9.06642456 3.44120483 -7.94262695 2.66015625 C-6.89594849 1.96780884 -6.89594849 1.96780884 -5.828125 1.26147461 C-4.89625366 0.63088135 -4.89625366 0.63088135 -3.94555664 -0.01245117 C-2.10546875 -0.66821289 -2.10546875 -0.66821289 0 0 Z " fill="#E6262C" transform="translate(363.10546875,29.668212890625)"/>
<path d="M0 0 C14.55291909 1.6101102 33.10554575 20.617325 43.265625 30.37890625 C45.41914061 32.44320478 47.59293537 34.39615086 49.875 36.3125 C60.18209093 45.26281888 69.66651794 55.19906236 78 66 C78.78503906 66.9796875 79.57007813 67.959375 80.37890625 68.96875 C85.27688429 75.12469448 89.79662603 81.49352298 94.125 88.0625 C94.61081543 88.78904785 95.09663086 89.5155957 95.59716797 90.26416016 C96.04205566 90.95171387 96.48694336 91.63926758 96.9453125 92.34765625 C97.34250488 92.95617432 97.73969727 93.56469238 98.14892578 94.19165039 C99 96 99 96 99 100 C80.50098099 111.27455005 60.0600057 116.93187149 38.375 111.75 C36.57169714 111.20369787 34.77849419 110.62233884 33 110 C32.15566406 109.7215625 31.31132813 109.443125 30.44140625 109.15625 C21.51233283 105.92451048 13.13398968 101.18515528 7.2578125 93.61328125 C5.88630399 91.77908007 5.88630399 91.77908007 3.5 89.5625 C-2.30055272 83.61693346 -9 75.70675747 -9 67 C-9.66 67 -10.32 67 -11 67 C-11.13277344 66.15695313 -11.26554688 65.31390625 -11.40234375 64.4453125 C-11.57894531 63.34960938 -11.75554688 62.25390625 -11.9375 61.125 C-12.11152344 60.03445312 -12.28554688 58.94390625 -12.46484375 57.8203125 C-12.85551159 55.06178454 -12.85551159 55.06178454 -14 53 C-15.92341447 34.0434113 -11.38522612 18.31185396 -2 2 C-1.34 1.34 -0.68 0.68 0 0 Z " fill="#E5272C" transform="translate(595,29)"/>
<path d="M0 0 C0.54914063 0.43441406 1.09828125 0.86882812 1.6640625 1.31640625 C0.2383374 11.38671774 -8.39121877 20.38615146 -14.3359375 28.31640625 C-14.87734375 29.04214844 -15.41875 29.76789063 -15.9765625 30.515625 C-29.62234975 48.43400098 -45.29636546 65.74882896 -63.3359375 79.31640625 C-64.57857928 80.27545334 -65.82072886 81.23513838 -67.0625 82.1953125 C-90.54212127 100.21158662 -90.54212127 100.21158662 -97.3359375 101.31640625 C-106.4050048 86.83612879 -110.58041709 74.26089354 -110.6484375 57.12890625 C-110.65391602 56.11948975 -110.65939453 55.11007324 -110.66503906 54.07006836 C-110.5725916 44.32881556 -109.19198217 35.91612214 -104.6484375 27.25390625 C-104.29394531 26.56490234 -103.93945312 25.87589844 -103.57421875 25.16601562 C-100.70240863 19.72496109 -97.47392591 14.88754712 -93.3359375 10.31640625 C-92.76746094 9.65640625 -92.19898438 8.99640625 -91.61328125 8.31640625 C-68.88944499 -16.38551342 -27.06245854 -19.50488233 0 0 Z " fill="#E5262B" transform="translate(692.3359375,358.68359375)"/>
<path d="M0 0 C5.45766891 3.05038501 9.68601352 6.93304057 11.6875 12.9375 C11.80843495 15.22682678 11.86288326 17.52001324 11.875 19.8125 C11.88917969 21.02679688 11.90335937 22.24109375 11.91796875 23.4921875 C11.4961264 29.79837319 9.13357966 33.07704839 4.6640625 37.2890625 C-0.95207368 41.97287568 -6.21549427 43.75091437 -13.5703125 43.4453125 C-21.13501237 42.04444215 -25.97884211 36.74907631 -30.21875 30.671875 C-33.59792917 25.31346232 -32.89264434 19.07623666 -32.3125 12.9375 C-30.14910073 6.48773955 -24.99443914 2.37281467 -19.3125 -1.0625 C-12.79313361 -3.23562213 -6.2339902 -2.88085911 0 0 Z " fill="#E42A30" transform="translate(489.3125,357.0625)"/>
<path d="M0 0 C6.15826231 3.60200248 11.7395147 7.54535956 13.92578125 14.60546875 C14.71394422 19.35833028 14.52838083 24.14014818 14.3125 28.9375 C13.6525 28.9375 12.9925 28.9375 12.3125 28.9375 C12.085625 29.63875 11.85875 30.34 11.625 31.0625 C9.16265201 36.45621464 5.64788288 40.3382109 0.3125 42.9375 C-6.07598766 44.82988815 -12.41464014 44.97440734 -18.4375 41.9375 C-23.56114426 38.767018 -27.01100913 34.29048174 -29.6875 28.9375 C-30.98522101 13.77270302 -30.98522101 13.77270302 -26.18359375 7.515625 C-18.45955002 -0.63193027 -11.02796322 -3.17754872 0 0 Z " fill="#E5282E" transform="translate(619.6875,223.0625)"/>
<path d="M0 0 C5.33934289 3.04331714 10.61601246 7.57677857 12.8125 13.4375 C13.66549646 20.48292269 14.10965024 27.47900992 10.125 33.625 C5.50368587 39.38270285 1.01501229 42.76126357 -6.44140625 43.73046875 C-13.2690406 44.12580908 -18.68823269 42.5548516 -24.1875 38.4375 C-29.90601189 31.81423369 -31.55220027 26.09675277 -31.46875 17.44921875 C-30.86200798 10.95202292 -27.10095907 6.5692724 -22.1875 2.4375 C-15.32173454 -2.2625542 -7.73557368 -3.45632016 0 0 Z " fill="#E4282E" transform="translate(488.1875,91.5625)"/>
<path d="M0 0 C5.33118763 3.50357989 10.2126497 7.48626181 12.171875 13.71484375 C13.19387658 20.86885479 13.49135317 27.6161569 9.546875 33.90234375 C6.84565595 37.28363442 4.01813962 39.66895831 0.171875 41.71484375 C-0.59125 42.12734375 -1.354375 42.53984375 -2.140625 42.96484375 C-8.10652255 44.62974539 -14.19390885 44.30556995 -19.91015625 41.88671875 C-25.80625402 38.28421502 -29.88112957 32.24300488 -31.828125 25.71484375 C-32.81029579 19.04835949 -31.51781519 13.35729477 -27.828125 7.71484375 C-20.52427321 -0.29042178 -10.58979833 -4.81221499 0 0 Z " fill="#E4282E" transform="translate(356.828125,223.28515625)"/>
<path d="M0 0 C5.81355079 3.22586503 9.21582299 6.99008547 12.09765625 12.94140625 C12.59265625 13.93140625 12.59265625 13.93140625 13.09765625 14.94140625 C13.87606076 22.15661733 12.74473042 28.13837462 8.5859375 34.11328125 C4.22718079 39.48091873 0.33468574 42.36659246 -6.6953125 43.3203125 C-13.43258274 43.72164545 -17.69890235 42.72165677 -23.0625 38.58984375 C-27.87563812 34.2774355 -30.57908483 30.12137188 -31.23828125 23.63671875 C-31.37318608 11.30641705 -31.37318608 11.30641705 -26.90234375 5.94140625 C-19.07607826 -0.95578547 -10.26953652 -3.7456856 0 0 Z " fill="#E5272C" transform="translate(394.90234375,317.05859375)"/>
<path d="M0 0 C1.03930664 0.01353516 1.03930664 0.01353516 2.09960938 0.02734375 C3.79572395 0.05073843 5.49165871 0.08660359 7.1875 0.125 C7.1875 0.785 7.1875 1.445 7.1875 2.125 C8.2703125 2.49625 8.2703125 2.49625 9.375 2.875 C14.61537199 5.20405422 17.21368293 7.62613122 19.5 12.875 C21.8390137 19.39559739 22.15140779 24.28619793 19.4375 30.8125 C16.3394599 37.05145965 13.36722874 40.76972646 6.80859375 43.38671875 C-0.35521715 45.40454328 -6.74532599 45.17009338 -13.3125 41.5625 C-18.77209665 37.85558285 -21.49259497 33.62853207 -22.8125 27.125 C-23.59578182 18.85559849 -22.67133965 12.87190138 -17.38671875 6.37109375 C-12.22837253 0.83953385 -7.4946398 -0.18646951 0 0 Z " fill="#E5272C" transform="translate(573.8125,315.875)"/>
<path d="M0 0 C4.81800603 4.69446741 7.12946282 10.23620891 7.5 16.875 C7.27365527 23.35042741 4.64009922 28.07143389 0.35546875 32.82421875 C-5.39841856 38.18845229 -11.76937811 39.55531433 -19.5078125 39.37890625 C-25.12865733 38.52432639 -29.21930037 35.12610045 -32.875 30.9375 C-37.7832669 24.15254282 -37.73332272 18.28004896 -37 10 C-35.38456606 3.84780847 -31.32528209 -0.62498569 -26 -4 C-16.92439725 -7.09481851 -7.74092477 -5.33198424 0 0 Z " fill="#E4292E" transform="translate(588,134)"/>
<path d="M0 0 C4.80421325 2.98928824 7.31868436 6.66092854 9 12 C10.29154335 20.00039354 8.57712606 26.36196901 4 33 C0.36298599 37.05593709 -3.75411783 39.67998345 -9.21875 40.21875 C-16.10997147 40.47398042 -22.6658532 39.88238263 -28.046875 35.23046875 C-34.1157812 28.67253911 -35.54332046 22.81814086 -35.37890625 13.97265625 C-34.61832589 8.00562889 -31.38339779 4.04280372 -27 0.125 C-18.17074153 -6.12905808 -9.16349109 -5.23628062 0 0 Z " fill="#E5282D" transform="translate(399,133)"/>
<path d="M0 0 C1.53062073 0.00661652 1.53062073 0.00661652 3.09216309 0.0133667 C6.0252217 0.03210848 8.95776818 0.06268017 11.890625 0.1015625 C13.18703918 0.11766571 13.18703918 0.11766571 14.50964355 0.13409424 C19.97990435 0.23956475 25.32003636 0.69983857 30.75 1.375 C30.75 1.705 30.75 2.035 30.75 2.375 C30.15627594 2.38308685 29.56255188 2.39117371 28.95083618 2.39950562 C-11.04491815 -0.3605951 -11.04491815 -0.3605951 -49.25 6.375 C-51.96262116 6.6072646 -54.65773126 6.79436235 -57.375 6.9375 C-58.12910156 6.98068359 -58.88320313 7.02386719 -59.66015625 7.06835938 C-61.52321888 7.1744832 -63.38658524 7.27525001 -65.25 7.375 C-59.84317331 3.77044888 -52.85811492 3.64340548 -46.5 2.75 C-45.30630798 2.58041779 -45.30630798 2.58041779 -44.08850098 2.40740967 C-29.39198102 0.38422876 -14.8225457 -0.07031898 0 0 Z " fill="#DD4E52" transform="translate(481.25,0.625)"/>
<path d="M0 0 C7.92 0.33 15.84 0.66 24 1 C24 1.66 24 2.32 24 3 C31.51053796 2.89247473 39.02098443 2.77983642 46.53134632 2.66066074 C50.0186684 2.60548424 53.50599895 2.55207274 56.9934082 2.50268555 C61.00220847 2.44583745 65.01085357 2.38132952 69.01953125 2.31640625 C70.27272659 2.29969376 71.52592194 2.28298126 72.8170929 2.26576233 C74.55855843 2.2358445 74.55855843 2.2358445 76.33520508 2.20532227 C77.35890701 2.18977798 78.38260895 2.1742337 79.43733215 2.15821838 C82.12007976 2.10284378 82.12007976 2.10284378 85 1 C86.62567079 0.85284801 88.25586857 0.75278133 89.88671875 0.68359375 C90.82451172 0.64169922 91.76230469 0.59980469 92.72851562 0.55664062 C94.19321289 0.49766602 94.19321289 0.49766602 95.6875 0.4375 C96.67556641 0.39431641 97.66363281 0.35113281 98.68164062 0.30664062 C101.12095546 0.20058346 103.56037113 0.09852286 106 0 C106 0.33 106 0.66 106 1 C102.58409069 1.48466519 99.1671498 1.96166632 95.75 2.4375 C94.80125 2.57220703 93.8525 2.70691406 92.875 2.84570312 C79.89457506 4.64366739 67.08664557 5.23451535 54 5.25 C52.76008301 5.25300613 52.76008301 5.25300613 51.49511719 5.256073 C34.1821559 5.26628898 17.07023362 4.05248969 0 1 C0 0.67 0 0.34 0 0 Z " fill="#D64347" transform="translate(426,484)"/>
<path d="M0 0 C0.66 0.33 1.32 0.66 2 1 C1.73968649 3.58476007 1.46689086 6.16728446 1.1875 8.75 C1.11724609 9.46027344 1.04699219 10.17054688 0.97460938 10.90234375 C0.49359007 15.25075829 -0.33167721 19.29875694 -1.52514648 23.51000977 C-3.16648055 29.99283898 -3.40327719 36.07009102 -3.328125 42.73046875 C-3.32625183 43.88750809 -3.32437866 45.04454742 -3.32244873 46.23664856 C-3.31577975 48.65592375 -3.30196978 51.07518911 -3.28125 53.49438477 C-3.24976089 57.21575826 -3.24023908 60.93670886 -3.234375 64.65820312 C-3.22521711 67.01563023 -3.21484525 69.373053 -3.203125 71.73046875 C-3.19887512 72.84697311 -3.19462524 73.96347748 -3.19024658 75.11381531 C-3.18063904 76.13610733 -3.17103149 77.15839935 -3.16113281 78.21166992 C-3.15430481 79.11479416 -3.14747681 80.0179184 -3.14044189 80.94841003 C-3.22625068 82.99280389 -3.22625068 82.99280389 -2 84 C-1.92674832 86.86267567 -1.90761795 89.700719 -1.9375 92.5625 C-1.94201172 93.36880859 -1.94652344 94.17511719 -1.95117188 95.00585938 C-1.96299482 97.00393756 -1.98093086 99.00197783 -2 101 C-2.33 101 -2.66 101 -3 101 C-8.51647863 67.47266388 -6.65559925 33.14915443 0 0 Z " fill="#D8464B" transform="translate(241,185)"/>
<path d="M0 0 C17.16 0 34.32 0 52 0 C51.67 0.99 51.34 1.98 51 3 C52.093125 2.95875 53.18625 2.9175 54.3125 2.875 C58 3 58 3 61 5 C56.60546875 4.51171875 52.2109375 4.0234375 47.81640625 3.53515625 C47.00631104 3.44693604 46.19621582 3.35871582 45.36157227 3.26782227 C43.90981474 3.10318069 42.45927534 2.92664202 41.01147461 2.73022461 C32.86621453 1.67141 24.63864794 1.64560785 16.4375 1.4375 C14.84048545 1.39422355 13.24348009 1.35060663 11.64648438 1.30664062 C7.76441777 1.20049931 3.88225568 1.09897381 0 1 C0 0.67 0 0.34 0 0 Z " fill="#FED5D5" transform="translate(469,0)"/>
<path d="M0 0 C1.09570312 -0.00257813 2.19140625 -0.00515625 3.3203125 -0.0078125 C4.465 -0.00007813 5.6096875 0.00765625 6.7890625 0.015625 C7.92601562 0.00789063 9.06296875 0.00015625 10.234375 -0.0078125 C11.88179688 -0.00394531 11.88179688 -0.00394531 13.5625 0 C15.06562744 0.00338379 15.06562744 0.00338379 16.59912109 0.00683594 C19.54718088 0.27786312 21.73741931 1.03232383 24.4140625 2.265625 C24.4140625 2.595625 24.4140625 2.925625 24.4140625 3.265625 C20.03907657 3.29475572 15.66411576 3.31246786 11.2890625 3.328125 C10.0515625 3.33650391 8.8140625 3.34488281 7.5390625 3.35351562 C6.34023438 3.35673828 5.14140625 3.35996094 3.90625 3.36328125 C2.25665283 3.37113647 2.25665283 3.37113647 0.57373047 3.37915039 C-2.56211855 3.2664808 -5.50653133 2.85188876 -8.5859375 2.265625 C-5.19518466 0.00512311 -3.97683025 0.0089727 0 0 Z " fill="#E46065" transform="translate(298.5859375,345.734375)"/>
<path d="M0 0 C0.66 0.33 1.32 0.66 2 1 C1.09330785 10.00291974 0.05152165 18.70692061 -2.3359375 27.4609375 C-3.16594369 30.63449057 -3.63003295 33.74428998 -4 37 C-4.33 37 -4.66 37 -5 37 C-5.2588927 30.07670807 -4.26446366 23.62085469 -3.0625 16.8125 C-2.88009766 15.74580078 -2.69769531 14.67910156 -2.50976562 13.58007812 C-1.72907335 9.04070739 -0.91826802 4.51375436 0 0 Z " fill="#E0595B" transform="translate(241,185)"/>
<path d="M0 0 C0.33 0.66 0.66 1.32 1 2 C1.66 2 2.32 2 3 2 C3.22786458 4.05078125 3.45572917 6.1015625 3.68359375 8.15234375 C3.81886614 10.01140229 3.81886614 10.01140229 5 11 C5.12887928 13.65850974 5.18974811 16.2782674 5.1875 18.9375 C5.1884668 20.08980103 5.1884668 20.08980103 5.18945312 21.26538086 C5.13614973 27.02275313 4.53250345 32.43099193 3 38 C2.67 38 2.34 38 2 38 C2.01047363 37.27522461 2.02094727 36.55044922 2.03173828 35.80371094 C2.07385486 32.45251065 2.09950047 29.10136636 2.125 25.75 C2.14175781 24.61046875 2.15851563 23.4709375 2.17578125 22.296875 C2.21917947 14.65878746 1.5140841 7.48677886 0 0 Z " fill="#FCC3C4" transform="translate(374,50)"/>
<path d="M0 0 C0.66 0.66 1.32 1.32 2 2 C1.19175781 1.97679687 0.38351562 1.95359375 -0.44921875 1.9296875 C-1.51785156 1.91164063 -2.58648437 1.89359375 -3.6875 1.875 C-4.74324219 1.85179687 -5.79898437 1.82859375 -6.88671875 1.8046875 C-12.97980138 2.18693861 -16.1214541 4.76891606 -20.3515625 8.85546875 C-20.89554687 9.23316406 -21.43953125 9.61085938 -22 10 C-22.99 9.67 -23.98 9.34 -25 9 C-18.94963467 -0.07554799 -10.36619313 -1.26273741 0 0 Z " fill="#D8494D" transform="translate(392,316)"/>
<path d="M0 0 C0.33 0.99 0.66 1.98 1 3 C-0.8125 5.6875 -0.8125 5.6875 -3 8 C-3.66 8 -4.32 8 -5 8 C-5.89082827 15.22293194 -6.23671826 21.04132098 -4 28 C-3.65785144 29.33109851 -3.32229163 30.66395472 -3 32 C-6.81677392 28.87718498 -7.76928592 25.25204491 -8.26171875 20.4453125 C-8.57630813 12.61312171 -7.00326636 7.33696262 -1.75 1.5 C-1.1725 1.005 -0.595 0.51 0 0 Z " fill="#D43B3F" transform="translate(559,320)"/>
<path d="M0 0 C0.33 0 0.66 0 1 0 C1 10.56 1 21.12 1 32 C-2.59127833 26.61308251 -2.18344206 22.54629847 -2.1875 16.1875 C-2.19974609 15.18912109 -2.21199219 14.19074219 -2.22460938 13.16210938 C-2.22654297 12.19466797 -2.22847656 11.22722656 -2.23046875 10.23046875 C-2.23457764 9.34770264 -2.23868652 8.46493652 -2.24291992 7.55541992 C-1.97437804 4.73046733 -1.16717379 2.57344906 0 0 Z " fill="#FED3D3" transform="translate(653,228)"/>
<path d="M0 0 C0.66 0.33 1.32 0.66 2 1 C0.5611898 4.387199 -1.22119499 6.3594104 -4 8.75 C-5.051875 9.67039063 -5.051875 9.67039063 -6.125 10.609375 C-8 12 -8 12 -10 12 C-10.28875 12.61875 -10.5775 13.2375 -10.875 13.875 C-12 16 -12 16 -14 18 C-14.66 18 -15.32 18 -16 18 C-14.45311471 14.42644681 -12.29462895 11.87441444 -9.6875 9 C-8.92824219 8.154375 -8.16898438 7.30875 -7.38671875 6.4375 C-5.05942071 4.06068498 -2.64007334 2.01860475 0 0 Z " fill="#DD3E42" transform="translate(681,187)"/>
<path d="M0 0 C0.33 0 0.66 0 1 0 C1.03758423 0.92897095 1.03758423 0.92897095 1.07592773 1.87670898 C1.19322658 4.73044888 1.31533586 7.58396441 1.4375 10.4375 C1.47681641 11.41138672 1.51613281 12.38527344 1.55664062 13.38867188 C1.81368167 19.30061599 2.27719621 25.12645997 3 31 C1 30 1 30 -0.11328125 27.04296875 C-1.30294721 22.47889279 -1.25672323 18.00146309 -1.1875 13.3125 C-1.18685547 12.47138672 -1.18621094 11.63027344 -1.18554688 10.76367188 C-1.15859463 6.98736265 -1.0327979 3.65265333 0 0 Z " fill="#F3AAAB" transform="translate(581,406)"/>
<path d="M0 0 C7.69101101 11.53651651 6.46695205 25.77807306 6 39 C5.67 39 5.34 39 5 39 C4.93941406 37.72125 4.87882812 36.4425 4.81640625 35.125 C4.73192784 33.4166589 4.64728359 31.70832599 4.5625 30 C4.52318359 29.16082031 4.48386719 28.32164062 4.44335938 27.45703125 C4.18148668 22.25986542 3.7100648 17.15542847 3 12 C2.34 12 1.68 12 1 12 C0.67 8.04 0.34 4.08 0 0 Z " fill="#D9494D" transform="translate(300,215)"/>
<path d="M0 0 C0.33 0.99 0.66 1.98 1 3 C-0.72920414 4.72920414 -2.45914531 6.45746543 -4.1953125 8.1796875 C-5.54435006 9.54040503 -6.8473517 10.94704014 -8.125 12.375 C-10.37797354 14.32757706 -12.07181194 14.67464577 -15 15 C-11.6052667 10.84699293 -8.28394908 7.26932956 -4 4 C-2.64852862 2.68505488 -1.30887458 1.35735142 0 0 Z " fill="#DE4347" transform="translate(319,60)"/>
<path d="M0 0 C7.92 0.33 15.84 0.66 24 1 C24 1.66 24 2.32 24 3 C25.98 3 27.96 3 30 3 C30 3.33 30 3.66 30 4 C19.86975045 3.57227835 9.96687989 3.01291888 0 1 C0 0.67 0 0.34 0 0 Z " fill="#DC5156" transform="translate(426,484)"/>
<path d="M0 0 C0.66 0.33 1.32 0.66 2 1 C-0.76780435 3.85167721 -3.59671945 6.60380787 -6.5625 9.25 C-7.39974609 10.00023437 -7.39974609 10.00023437 -8.25390625 10.765625 C-10.16398128 12.11592413 -11.71532318 12.5800594 -14 13 C-9.89962427 7.75027653 -5.47035213 3.79037089 0 0 Z " fill="#DD464B" transform="translate(613,357)"/>
<path d="M0 0 C3.3 0.33 6.6 0.66 10 1 C10 1.66 10 2.32 10 3 C10.77601563 2.91621094 11.55203125 2.83242187 12.3515625 2.74609375 C20.69899013 1.95916441 28.66177984 2.18742982 37 3 C37 3.33 37 3.66 37 4 C33.01652774 4.07480519 29.03333406 4.12890718 25.04931641 4.16479492 C23.03663752 4.18709408 21.02415416 4.22523653 19.01171875 4.26367188 C11.94380209 4.31694763 6.39810097 4.10928121 0 1 C0 0.67 0 0.34 0 0 Z " fill="#DD272A" transform="translate(452,66)"/>
<path d="M0 0 C3.75551164 3.75551164 4.75507924 10.08094444 5.19140625 15.28125 C5.18818042 16.85545683 5.1047149 18.42927649 5 20 C3.35 20 1.7 20 0 20 C0 19.34 0 18.68 0 18 C0.99 18 1.98 18 3 18 C2.7834375 17.03578125 2.566875 16.0715625 2.34375 15.078125 C2.0653125 13.81484375 1.786875 12.5515625 1.5 11.25 C1.2215625 9.99703125 0.943125 8.7440625 0.65625 7.453125 C0 4 0 4 0 0 Z " fill="#E26164" transform="translate(544,461)"/>
<path d="M0 0 C-1.50285062 3.97244725 -3.77809024 5.51169991 -7.3125 7.75 C-8.25738281 8.36359375 -9.20226562 8.9771875 -10.17578125 9.609375 C-13.10506565 11.05173357 -14.7894856 11.30409244 -18 11 C-14.56662594 8.17325123 -11.06054842 5.6430241 -7.3125 3.25 C-6.35988281 2.63640625 -5.40726563 2.0228125 -4.42578125 1.390625 C-2 0 -2 0 0 0 Z " fill="#FCDCD9" transform="translate(613,450)"/>
<path d="M0 0 C4.95 0 9.9 0 15 0 C15 0.66 15 1.32 15 2 C16.32 2.66 17.64 3.32 19 4 C12.4 3.34 5.8 2.68 -1 2 C-0.67 1.34 -0.34 0.68 0 0 Z " fill="#DE4D50" transform="translate(566,316)"/>
<path d="M0 0 C1.91697937 0.14166357 3.83357723 0.28849584 5.75 0.4375 C7.35101562 0.55931641 7.35101562 0.55931641 8.984375 0.68359375 C12 1 12 1 14.203125 1.66015625 C16.33685834 2.28073965 16.33685834 2.28073965 19 0 C18.67 1.65 18.34 3.3 18 5 C11.69632197 4.41632611 6.01339937 2.95928381 0 1 C0 0.67 0 0.34 0 0 Z " fill="#E0565B" transform="translate(697,310)"/>
<path d="M0 0 C0.66 0.33 1.32 0.66 2 1 C2.31241455 3.71446979 2.51336592 6.33909361 2.625 9.0625 C2.66367187 9.82111328 2.70234375 10.57972656 2.7421875 11.36132812 C2.83673562 13.24047195 2.91946756 15.12020336 3 17 C2.34 17 1.68 17 1 17 C0.67 17.66 0.34 18.32 0 19 C-0.66 19 -1.32 19 -2 19 C-1.84660156 18.49984375 -1.69320313 17.9996875 -1.53515625 17.484375 C-0.80542604 14.09672234 -0.63643523 10.70038481 -0.4375 7.25 C-0.39431641 6.55261719 -0.35113281 5.85523438 -0.30664062 5.13671875 C-0.20110404 3.42468078 -0.1001009 1.71236439 0 0 Z " fill="#FCC8C6" transform="translate(369,237)"/>
<path d="M0 0 C0.66 0.33 1.32 0.66 2 1 C0.6875 3 0.6875 3 -1 5 C-1.99 5 -2.98 5 -4 5 C-4 5.66 -4 6.32 -4 7 C-4.66 7 -5.32 7 -6 7 C-6 7.66 -6 8.32 -6 9 C-6.99 9 -7.98 9 -9 9 C-9.66 10.32 -10.32 11.64 -11 13 C-12.32 12.67 -13.64 12.34 -15 12 C-10 8 -5 4 0 0 Z " fill="#DC4C50" transform="translate(341,42)"/>
<path d="M0 0 C1 2 1 2 0.44140625 3.9453125 C0.15136719 4.66460937 -0.13867188 5.38390625 -0.4375 6.125 C-0.72496094 6.84945312 -1.01242187 7.57390625 -1.30859375 8.3203125 C-1.53675781 8.87460938 -1.76492188 9.42890625 -2 10 C-2.66 10 -3.32 10 -4 10 C-3.85786703 11.89611434 -3.71113093 13.79188394 -3.5625 15.6875 C-3.48128906 16.74324219 -3.40007813 17.79898438 -3.31640625 18.88671875 C-3.03548319 21.65086297 -2.59843148 24.28945741 -2 27 C-5.82621117 22.97026695 -5.50320127 19.05730993 -5.49804688 13.73217773 C-5.31792427 7.7772374 -3.70347902 4.5367618 0 0 Z " fill="#DA4A4D" transform="translate(595,229)"/>
<path d="M0 0 C14.78132118 0.77904328 14.78132118 0.77904328 21 3 C21 3.33 21 3.66 21 4 C13.70968976 4.2494783 7.09326321 3.72330907 0 2 C0 1.34 0 0.68 0 0 Z " fill="#D93F44" transform="translate(512,3)"/>
<path d="M0 0 C1.65 0.33 3.3 0.66 5 1 C5.67360912 9.08330939 3.44171655 14.7355197 0 22 C-0.33 22 -0.66 22 -1 22 C-1.26260116 17.66708088 -0.41644354 14.09194801 1 10 C1.66 9.67 2.32 9.34 3 9 C3.40729228 6.67843403 3.74438677 4.3431213 4 2 C2.68 1.34 1.36 0.68 0 0 Z " fill="#E15C60" transform="translate(544,8)"/>
<path d="M0 0 C0.33 1.32 0.66 2.64 1 4 C0.01 4 -0.98 4 -2 4 C-2 4.66 -2 5.32 -2 6 C-5.91343237 9.82025541 -8.38074374 11.59862455 -14 12 C-11.31677614 9.17025197 -8.33731352 6.76793686 -5.3125 4.3125 C-4.31863281 3.50425781 -3.32476562 2.69601562 -2.30078125 1.86328125 C-1.54152344 1.24839844 -0.78226562 0.63351562 0 0 Z " fill="#FDE0DF" transform="translate(287,293)"/>
<path d="M0 0 C2.8551592 4.2827388 3.11672494 7.14458058 3.0625 12.1875 C3.05347656 13.27417969 3.04445313 14.36085937 3.03515625 15.48046875 C3.02355469 16.31191406 3.01195312 17.14335937 3 18 C2.34 18 1.68 18 1 18 C0.67 18.66 0.34 19.32 0 20 C0 13.4 0 6.8 0 0 Z " fill="#DF4E50" transform="translate(631,234)"/>
<path d="M0 0 C0.68707555 2.49064888 1 4.37886292 1 7 C0.01 7 -0.98 7 -2 7 C-2.0825 7.556875 -2.165 8.11375 -2.25 8.6875 C-3.23895541 11.73677919 -4.84757466 13.65189963 -7 16 C-7.66 16 -8.32 16 -9 16 C-7.30947142 12.49371851 -5.31590972 9.27361517 -3.21875 6 C-2.02744311 4.04503484 -0.99381218 2.06124007 0 0 Z " fill="#FBD4D2" transform="translate(371,101)"/>
<path d="M0 0 C0.33 0 0.66 0 1 0 C1.34740318 2.91818671 1.50109494 5.13765057 -0.0078125 7.734375 C-1.3125 9.375 -1.3125 9.375 -4 12 C-4.99 12 -5.98 12 -7 12 C-5.61964507 9.14940657 -4.10703513 6.44119096 -2.4375 3.75 C-2.00308594 3.04359375 -1.56867187 2.3371875 -1.12109375 1.609375 C-0.75113281 1.07828125 -0.38117187 0.5471875 0 0 Z " fill="#FCD9D8" transform="translate(691,367)"/>
<path d="M0 0 C1.89698812 0.95694766 3.73855239 2.02229609 5.56640625 3.10546875 C4.57640625 3.76546875 3.58640625 4.42546875 2.56640625 5.10546875 C2.23640625 4.11546875 1.90640625 3.12546875 1.56640625 2.10546875 C0.674375 2.04488281 -0.21765625 1.98429687 -1.13671875 1.921875 C-2.3071875 1.83808594 -3.47765625 1.75429687 -4.68359375 1.66796875 C-5.84375 1.58675781 -7.00390625 1.50554687 -8.19921875 1.421875 C-10.74336751 1.17299088 -12.99312623 0.82431933 -15.43359375 0.10546875 C-10.40272534 -1.57148739 -5.0284951 -1.84835534 0 0 Z " fill="#E46869" transform="translate(486.43359375,90.89453125)"/>
<path d="M0 0 C2 2 2 2 2.265625 3.91796875 C2.23066097 8.9964947 1.63820116 13.18778409 0 18 C-0.33 18 -0.66 18 -1 18 C-0.505 9.09 -0.505 9.09 0 0 Z " fill="#DC474A" transform="translate(406,330)"/>
<path d="M0 0 C0.33 0 0.66 0 1 0 C1.125 7.625 1.125 7.625 0 11 C0.99 11 1.98 11 3 11 C3 11.66 3 12.32 3 13 C3.66 13.33 4.32 13.66 5 14 C-0.875 13.125 -0.875 13.125 -2 12 C-2.04080783 10.00041636 -2.04254356 7.99954746 -2 6 C-1.34 6 -0.68 6 0 6 C0 4.02 0 2.04 0 0 Z " fill="#DA5556" transform="translate(411,468)"/>
<path d="M0 0 C0 0.99 0 1.98 0 3 C-1.64639965 4.35827971 -3.31295807 5.69254251 -5 7 C-5 7.66 -5 8.32 -5 9 C-6.32 9 -7.64 9 -9 9 C-7.55536047 5.62917442 -5.75336875 3.41962708 -3 1 C-2.01 0.67 -1.02 0.34 0 0 Z " fill="#DB363B" transform="translate(469,93)"/>
<path d="M0 0 C0.66 1.32 1.32 2.64 2 4 C-3.89285714 9.22321429 -3.89285714 9.22321429 -8 10 C-7.59007812 9.52949219 -7.18015625 9.05898437 -6.7578125 8.57421875 C-6.21898437 7.95160156 -5.68015625 7.32898438 -5.125 6.6875 C-4.59132813 6.07261719 -4.05765625 5.45773438 -3.5078125 4.82421875 C-1.8359553 2.86501788 -1.8359553 2.86501788 0 0 Z " fill="#DC4243" transform="translate(299,79)"/>
<path d="M0 0 C0.33 0 0.66 0 1 0 C1.33 4.95 1.66 9.9 2 15 C0.68 14.34 -0.64 13.68 -2 13 C-1.34 8.71 -0.68 4.42 0 0 Z " fill="#FCCACB" transform="translate(550,332)"/>
<path d="M0 0 C-1.09283577 1.03295436 -2.19970579 2.05107835 -3.3125 3.0625 C-3.92738281 3.63097656 -4.54226563 4.19945312 -5.17578125 4.78515625 C-5.77777344 5.18605469 -6.37976563 5.58695312 -7 6 C-7.99 5.67 -8.98 5.34 -10 5 C-6.58244111 0.23982869 -6.58244111 0.23982869 -3.875 -0.875 C-2 -1 -2 -1 0 0 Z " fill="#DE3F42" transform="translate(377,320)"/>
<path d="M0 0 C1.09570312 0.00902344 2.19140625 0.01804688 3.3203125 0.02734375 C4.16335938 0.03894531 5.00640625 0.05054688 5.875 0.0625 C5.875 0.3925 5.875 0.7225 5.875 1.0625 C0.06733704 2.5681904 -5.1231863 3.28074777 -11.125 3.0625 C-6.92562487 0.26291658 -5.02794562 -0.05348878 0 0 Z " fill="#E35A5E" transform="translate(348.125,221.9375)"/>
<path d="M0 0 C0.33 0.66 0.66 1.32 1 2 C0.2578125 4.171875 0.2578125 4.171875 -0.875 6.75 C-2.45687825 10.5137793 -3.56929242 13.90827804 -4 18 C-4.33 18 -4.66 18 -5 18 C-5.25 10.375 -5.25 10.375 -3 7 C-2.7525 5.453125 -2.7525 5.453125 -2.5 3.875 C-2.335 2.92625 -2.17 1.9775 -2 1 C-1.34 0.67 -0.68 0.34 0 0 Z " fill="#F9B8B8" transform="translate(415,456)"/>
<path d="M0 0 C0.33 0.66 0.66 1.32 1 2 C0.09515208 3.15518918 -0.8244206 4.29885406 -1.75 5.4375 C-2.26046875 6.07558594 -2.7709375 6.71367187 -3.296875 7.37109375 C-5.19667629 9.18810554 -6.43586908 9.60423197 -9 10 C-6.68116787 5.49115974 -3.93548431 3.06093224 0 0 Z " fill="#D94041" transform="translate(432,436)"/>
<path d="M0 0 C-0.5625 1.875 -0.5625 1.875 -2 4 C-7.33802868 6.17878722 -12.2909775 6.23302133 -18 6 C-18 5.67 -18 5.34 -18 5 C-17.34773438 4.89042969 -16.69546875 4.78085937 -16.0234375 4.66796875 C-10.79488977 3.7194269 -4.9112504 0 0 0 Z " fill="#FCD5D5" transform="translate(362,262)"/>
<path d="M0 0 C0.33 1.32 0.66 2.64 1 4 C-0.24687592 4.96239452 -1.49764969 5.91974009 -2.75 6.875 C-3.44609375 7.40867187 -4.1421875 7.94234375 -4.859375 8.4921875 C-6.84722603 9.89238914 -8.79843386 10.97855265 -11 12 C-7.49102731 7.81576108 -3.91939465 3.80411834 0 0 Z " fill="#FCCECF" transform="translate(652,416)"/>
<path d="M0 0 C0.99 0.33 1.98 0.66 3 1 C3.33 5.95 3.66 10.9 4 16 C1.62526776 13.62526776 1.4828067 12.37628347 0.875 9.125 C0.70742187 8.26132812 0.53984375 7.39765625 0.3671875 6.5078125 C0 4 0 4 0 0 Z " fill="#E9787C" transform="translate(240,298)"/>
<path d="M0 0 C2 2 2 2 2 5 C1.34 5 0.68 5 0 5 C0.66 8.63 1.32 12.26 2 16 C1.34 16.33 0.68 16.66 0 17 C-1.07957377 13.76127868 -1.13326784 11.33971795 -1.125 7.9375 C-1.12757813 6.87402344 -1.13015625 5.81054688 -1.1328125 4.71484375 C-1 2 -1 2 0 0 Z " fill="#D6393D" transform="translate(365,142)"/>
<path d="M0 0 C0.6875 1.6875 0.6875 1.6875 1 4 C-0.25 6.6875 -0.25 6.6875 -2 9 C-2.99 9.33 -3.98 9.66 -5 10 C-3.84414715 6.08788267 -2.64465038 3.1254959 0 0 Z " fill="#DD4A4A" transform="translate(422,446)"/>
<path d="M0 0 C2.4294516 3.6441774 2.16179575 5.71241272 2 10 C1.67 10 1.34 10 1 10 C0.34 7.69 -0.32 5.38 -1 3 C-3.64 2.67 -6.28 2.34 -9 2 C-5.89782379 0.16167336 -3.60591321 -0.47446226 0 0 Z " fill="#EB898D" transform="translate(715,174)"/>
<path d="M0 0 C2.97 0 5.94 0 9 0 C9.33 1.65 9.66 3.3 10 5 C6.08788267 3.84414715 3.1254959 2.64465038 0 0 Z " fill="#FAD1D0" transform="translate(680,352)"/>
<path d="M0 0 C3.3 0.33 6.6 0.66 10 1 C9.67 2.32 9.34 3.64 9 5 C5.51694958 4.35499066 2.93797836 2.95865224 0 1 C0 0.67 0 0.34 0 0 Z " fill="#DD5357" transform="translate(355,455)"/>
<path d="M0 0 C0.66 0.99 1.32 1.98 2 3 C1.125 5.6875 1.125 5.6875 0 8 C-0.66 8 -1.32 8 -2 8 C-2.33 9.32 -2.66 10.64 -3 12 C-4.21386936 8.35839192 -3.6674695 7.66834531 -2.0625 4.3125 C-1.49208984 3.10013672 -1.49208984 3.10013672 -0.91015625 1.86328125 C-0.60980469 1.24839844 -0.30945313 0.63351562 0 0 Z " fill="#D8474D" transform="translate(589,383)"/>
<path d="M0 0 C0.33 0 0.66 0 1 0 C1.1080023 2.10304477 1.18558987 4.20766909 1.25 6.3125 C1.29640625 7.48425781 1.3428125 8.65601563 1.390625 9.86328125 C1.26171875 10.89839844 1.1328125 11.93351562 1 13 C-0.32 13.99 -1.64 14.98 -3 16 C-2.01 10.72 -1.02 5.44 0 0 Z " fill="#FCC1C4" transform="translate(595,334)"/>
<path d="M0 0 C1.20220203 3.53094302 0.79532349 6.12898982 0.0625 9.75 C-0.13214844 10.73484375 -0.32679688 11.7196875 -0.52734375 12.734375 C-0.68332031 13.48203125 -0.83929687 14.2296875 -1 15 C-2.76462683 11.91190305 -3 10.76687864 -3 7 C-2.34 7 -1.68 7 -1 7 C-0.67 4.69 -0.34 2.38 0 0 Z " fill="#DE5F62" transform="translate(720,285)"/>
<path d="M0 0 C0 4.24645065 -1.81750806 6.38524772 -4 10 C-4.99 10 -5.98 10 -7 10 C-5.33248852 6.05860922 -2.77289351 3.2107188 0 0 Z " fill="#DB4D51" transform="translate(672,195)"/>
<path d="M0 0 C1.10084497 4.40337988 0.7915332 5.26798414 -0.9375 9.25 C-1.31777344 10.14203125 -1.69804687 11.0340625 -2.08984375 11.953125 C-2.39019531 12.62859375 -2.69054687 13.3040625 -3 14 C-3.33 14 -3.66 14 -4 14 C-4 12.02 -4 10.04 -4 8 C-3.34 8 -2.68 8 -2 8 C-1.34 5.36 -0.68 2.72 0 0 Z " fill="#D83C3D" transform="translate(373,91)"/>
<path d="M0 0 C-0.7109375 1.953125 -0.7109375 1.953125 -2 4 C-4.1640625 4.609375 -4.1640625 4.609375 -6.625 4.75 C-7.44226563 4.80671875 -8.25953125 4.8634375 -9.1015625 4.921875 C-9.72804688 4.94765625 -10.35453125 4.9734375 -11 5 C-3.5 0 -3.5 0 0 0 Z " fill="#FCCFCD" transform="translate(514,63)"/>
<path d="M0 0 C0.33 0 0.66 0 1 0 C1.10884119 1.41493551 1.18597617 2.83232943 1.25 4.25 C1.29640625 5.03890625 1.3428125 5.8278125 1.390625 6.640625 C1 9 1 9 -3 13 C-2.01 8.71 -1.02 4.42 0 0 Z " fill="#FBBCBC" transform="translate(376,428)"/>
<path d="M0 0 C0.66 0 1.32 0 2 0 C4.13586678 3.20380017 4.23132175 4.01939967 4.125 7.6875 C4.10695313 8.49574219 4.08890625 9.30398438 4.0703125 10.13671875 C4.03550781 11.05904297 4.03550781 11.05904297 4 12 C2.09681116 9.14521674 1.5380901 7.58058692 0.875 4.3125 C0.70742188 3.50425781 0.53984375 2.69601562 0.3671875 1.86328125 C0.24601562 1.24839844 0.12484375 0.63351562 0 0 Z " fill="#FCCCCC" transform="translate(372,389)"/>
<path d="M0 0 C0.66 0.33 1.32 0.66 2 1 C-0.46153846 5.8 -0.46153846 5.8 -3.1875 6.8125 C-3.785625 6.874375 -4.38375 6.93625 -5 7 C-3.70700306 4.11562221 -2.34058637 2.12780579 0 0 Z " fill="#D93D40" transform="translate(372,133)"/>
<path d="M0 0 C1 4 1 4 0.00390625 5.703125 C-1.33072917 7.13541667 -2.66536458 8.56770833 -4 10 C-4.66 9.67 -5.32 9.34 -6 9 C-4.02 6.03 -2.04 3.06 0 0 Z " fill="#DE4C4D" transform="translate(273,112)"/>
<path d="M0 0 C0.66 0 1.32 0 2 0 C2 2.31 2 4.62 2 7 C0.35 7 -1.3 7 -3 7 C-3 6.34 -3 5.68 -3 5 C-2.01 5 -1.02 5 0 5 C0 3.35 0 1.7 0 0 Z " fill="#D55251" transform="translate(547,474)"/>
<path d="M0 0 C0.66 0.33 1.32 0.66 2 1 C0.68 1.33 -0.64 1.66 -2 2 C-2 2.66 -2 3.32 -2 4 C-5 6 -5 6 -7.1875 5.625 C-7.785625 5.41875 -8.38375 5.2125 -9 5 C-7.54735962 4.1361871 -6.0876837 3.28419546 -4.625 2.4375 C-3.40683594 1.72400391 -3.40683594 1.72400391 -2.1640625 0.99609375 C-1.44992187 0.66738281 -0.73578125 0.33867187 0 0 Z " fill="#DE5D62" transform="translate(624,351)"/>
<path d="M0 0 C0.5625 1.9375 0.5625 1.9375 1 4 C0.67 4.33 0.34 4.66 0 5 C-2.69082872 4.82364548 -5.32851446 4.38164079 -8 4 C-8 3.67 -8 3.34 -8 3 C-6.865625 2.690625 -5.73125 2.38125 -4.5625 2.0625 C-1.21224901 1.37075469 -1.21224901 1.37075469 0 0 Z " fill="#E67274" transform="translate(715,310)"/>
<path d="M0 0 C0.33 0.66 0.66 1.32 1 2 C0.01 2 -0.98 2 -2 2 C-2.66 3.32 -3.32 4.64 -4 6 C-5.32 5.67 -6.64 5.34 -8 5 C-5.31158141 2.74754119 -3.35358125 1.11786042 0 0 Z " fill="#DD4246" transform="translate(334,49)"/>
<path d="M0 0 C2.79872437 2.52788007 4.45773019 4.20411134 5 8 C3.68 8 2.36 8 1 8 C0.67 5.36 0.34 2.72 0 0 Z " fill="#DB4248" transform="translate(363,30)"/>
<path d="M0 0 C1.98 0.66 3.96 1.32 6 2 C6 2.99 6 3.98 6 5 C6.66 5 7.32 5 8 5 C7.67 5.66 7.34 6.32 7 7 C5.83040013 6.02433888 4.66438823 5.044375 3.5 4.0625 C2.8503125 3.51722656 2.200625 2.97195313 1.53125 2.41015625 C1.0259375 1.94480469 0.520625 1.47945313 0 1 C0 0.67 0 0.34 0 0 Z " fill="#FBC9C3" transform="translate(524,434)"/>
<path d="M0 0 C2 1.75 2 1.75 4 4 C4 5.32 4 6.64 4 8 C3.01 8.33 2.02 8.66 1 9 C0.67 6.03 0.34 3.06 0 0 Z " fill="#D64444" transform="translate(690,121)"/>
<path d="M0 0 C3.3 0.33 6.6 0.66 10 1 C10 1.66 10 2.32 10 3 C10.66 3.33 11.32 3.66 12 4 C7.80530429 3.40075776 3.99000166 2.42500059 0 1 C0 0.67 0 0.34 0 0 Z " fill="#DD4A4D" transform="translate(452,66)"/>
<path d="M0 0 C6.64615385 1.47692308 6.64615385 1.47692308 8.4375 4.125 C8.7159375 5.053125 8.7159375 5.053125 9 6 C5.06326356 4.68775452 2.77280706 3.08089673 0 0 Z " fill="#D9444A" transform="translate(346,449)"/>
<path d="M0 0 C0.66 0.99 1.32 1.98 2 3 C0.68 4.32 -0.64 5.64 -2 7 C-2.99 6.67 -3.98 6.34 -5 6 C-3.35 4.02 -1.7 2.04 0 0 Z " fill="#FCD2D2" transform="translate(293,285)"/>
<path d="M0 0 C0.66 0.33 1.32 0.66 2 1 C1.3125 2.9375 1.3125 2.9375 0 5 C-2.625 5.75 -2.625 5.75 -5 6 C-3.35 4.02 -1.7 2.04 0 0 Z " fill="#D84445" transform="translate(335,225)"/>
<path d="M0 0 C2.3828125 -0.29296875 2.3828125 -0.29296875 5.125 -0.1875 C6.03507813 -0.16042969 6.94515625 -0.13335937 7.8828125 -0.10546875 C8.58148437 -0.07066406 9.28015625 -0.03585938 10 0 C10 0.33 10 0.66 10 1 C8.4221875 1.2165625 8.4221875 1.2165625 6.8125 1.4375 C3.84539451 1.87526966 0.93205634 2.37804866 -2 3 C-1.34 2.01 -0.68 1.02 0 0 Z " fill="#DA3C3F" transform="translate(601,224)"/>
<path d="M0 0 C0.66 0.33 1.32 0.66 2 1 C0.35 2.65 -1.3 4.3 -3 6 C-3.99 5.34 -4.98 4.68 -6 4 C-4.02 2.68 -2.04 1.36 0 0 Z " fill="#FACFD0" transform="translate(520,58)"/>
<path d="M0 0 C-0.625 1.9375 -0.625 1.9375 -2 4 C-5.125 4.75 -5.125 4.75 -8 5 C-3.16129032 0 -3.16129032 0 0 0 Z " fill="#D93F41" transform="translate(446,427)"/>
<path d="M0 0 C0.99 0.33 1.98 0.66 3 1 C1.69593116 3.01920337 0.36176581 5.01924973 -1 7 C-1.33 7 -1.66 7 -2 7 C-2 5.02 -2 3.04 -2 1 C-1.34 0.67 -0.68 0.34 0 0 Z " fill="#D83438" transform="translate(683,375)"/>
<path d="M0 0 C0.33 1.32 0.66 2.64 1 4 C-1.90600261 5.25664978 -3.79604584 6 -7 6 C-4.69 4.02 -2.38 2.04 0 0 Z " fill="#FCCECF" transform="translate(287,293)"/>
<path d="M0 0 C0.66 0 1.32 0 2 0 C2 1.65 2 3.3 2 5 C1.34 5 0.68 5 0 5 C-0.33 5.66 -0.66 6.32 -1 7 C-1.66 7 -2.32 7 -3 7 C-2.67 5.68 -2.34 4.36 -2 3 C-1.34 3 -0.68 3 0 3 C0 2.01 0 1.02 0 0 Z " fill="#FCE4E1" transform="translate(370,249)"/>
<path d="M0 0 C3.95820859 0.56545837 6.6659053 1.80902348 10 4 C9.01 4.495 9.01 4.495 8 5 C6.0546875 4.22265625 6.0546875 4.22265625 3.875 3.0625 C3.15054687 2.68222656 2.42609375 2.30195313 1.6796875 1.91015625 C1.12539063 1.60980469 0.57109375 1.30945313 0 1 C0 0.67 0 0.34 0 0 Z " fill="#D8464A" transform="translate(272,133)"/>
</svg>
